<svg xmlns="http://www.w3.org/2000/svg" version="1.1" xmlns:xlink="http://www.w3.org/1999/xlink" xmlns:svgjs="http://svgjs.dev/svgjs" width="128" height="128" viewBox="0 0 128 128"><g transform="matrix(0.8046875,0,0,0.8046875,12.379335748792272,10.71930443548387)"><svg viewBox="0 0 150 155" data-background-color="#ffffff" preserveAspectRatio="xMidYMid meet" height="132" width="128" xmlns="http://www.w3.org/2000/svg" xmlns:xlink="http://www.w3.org/1999/xlink"><g id="tight-bounds" transform="matrix(1,0,0,1,0.17572463768115654,0.25)"><svg viewBox="0 0 149.6485507246377 154.5" height="154.5" width="149.6485507246377"><g><svg viewBox="0 0 149.6485507246377 154.5" height="154.5" width="149.6485507246377"><g><svg viewBox="0 0 149.6485507246377 154.5" height="154.5" width="149.6485507246377"><g id="textblocktransform"><svg viewBox="0 0 149.6485507246377 154.5" height="154.5" width="149.6485507246377" id="textblock"><g><svg viewBox="0 0 149.6485507246377 154.5" height="154.5" width="149.6485507246377"><g transform="matrix(1,0,0,1,0,0)"><svg width="149.6485507246377" viewBox="2.27 -40.43 39.16 40.43" height="154.5" data-palette-color="#093d65"><path d="M29.13-14.09L29.13-14.09Q29.13-15.04 28.55-15.36 27.98-15.67 26.88-15.67L26.88-15.67 15.55-15.67 15.55-17.43 26.88-17.43Q30.88-17.43 30.88-14.09L30.88-14.09Q30.88-12.21 29.79-11.38 28.69-10.55 26.88-10.55L26.88-10.55 15.55-10.55 15.55-12.3 26.88-12.3Q29.13-12.3 29.13-14.09ZM14.58-28.13L14.58 0 12.82 0 12.82-29.88 26.88-29.88Q28.54-29.88 29.71-28.87 30.88-27.86 30.88-26.34L30.88-26.34Q30.88-24.34 29.79-23.45 28.69-22.56 26.88-22.56L26.88-22.56 15.55-22.56 15.55-24.32 26.88-24.32Q29.13-24.32 29.13-26.34L29.13-26.34Q29.13-27.17 28.49-27.65 27.86-28.13 26.88-28.13L26.88-28.13 14.58-28.13ZM15.55-19.04L15.55-20.8 26.88-20.8Q29.3-20.8 30.97-22.25 32.64-23.71 32.64-26.34L32.64-26.34Q32.64-28.47 30.9-30.05 29.15-31.64 26.88-31.64L26.88-31.64 11.06-31.64 11.06 0 9.3 0 9.3-33.4 26.88-33.4Q29.88-33.4 32.14-31.29 34.4-29.17 34.4-26.34L34.4-26.34Q34.4-24.12 33.36-22.46 32.32-20.8 30.57-19.9L30.57-19.9Q34.4-18.53 34.4-14.33L34.4-14.33Q34.4-11.01 32.2-9.02 30-7.03 26.88-7.03L26.88-7.03 15.55-7.03 15.55-8.79 26.88-8.79Q29.3-8.79 30.97-10.24 32.64-11.69 32.64-14.33L32.64-14.33Q32.64-16.11 31.37-17.48 30.1-18.85 27.64-19.07L27.64-19.07Q27.39-19.04 26.88-19.04L26.88-19.04 15.55-19.04ZM37.92-26.34L37.92-26.34Q37.92-22.92 35.5-20.17L35.5-20.17Q37.92-17.48 37.92-14.33L37.92-14.33Q37.92-11.28 36.39-8.78 34.86-6.27 32.34-4.9 29.81-3.52 26.88-3.52L26.88-3.52 15.55-3.52 15.55-5.27 26.88-5.27Q30.69-5.27 33.42-7.82 36.16-10.38 36.16-14.33L36.16-14.33Q36.16-15.75 35.44-17.47 34.72-19.19 33.45-20.09L33.45-20.09Q36.16-22.63 36.16-26.34L36.16-26.34Q36.16-29.91 33.37-32.53 30.59-35.16 26.88-35.16L26.88-35.16 7.54-35.16 7.54 0 5.79 0 5.79-36.91 26.88-36.91Q29.79-36.91 32.34-35.49 34.89-34.06 36.4-31.6 37.92-29.15 37.92-26.34ZM37.5-20.07L37.5-20.07Q39.67-22.97 39.67-26.34L39.67-26.34Q39.67-29.64 37.93-32.48 36.18-35.33 33.23-37 30.27-38.67 26.88-38.67L26.88-38.67 4.03-38.67 4.03 0 2.27 0 2.27-40.43 26.88-40.43Q30.74-40.43 34.09-38.53 37.45-36.62 39.44-33.36 41.43-30.1 41.43-26.34L41.43-26.34Q41.43-22.75 39.4-20.04L39.4-20.04Q41.43-17.24 41.43-14.33L41.43-14.33Q41.43-11.06 40.26-8.34 39.09-5.62 37.1-3.81 35.11-2 32.47-1 29.83 0 26.88 0L26.88 0 15.55 0 15.55-1.76 26.88-1.76Q29.44-1.76 31.79-2.72 34.13-3.69 35.86-5.35 37.6-7.01 38.64-9.35 39.67-11.69 39.67-14.33L39.67-14.33Q39.67-15.5 39.12-17.15 38.57-18.8 37.5-20.07Z" opacity="1" transform="matrix(1,0,0,1,0,0)" fill="#093d65" class="wordmark-text-0" data-fill-palette-color="primary" id="text-0"></path></svg></g></svg></g></svg></g></svg></g></svg></g><defs></defs></svg><rect width="149.6485507246377" height="154.5" fill="none" stroke="none" visibility="hidden"></rect></g></svg></g></svg>