<svg xmlns="http://www.w3.org/2000/svg" version="1.1" xmlns:xlink="http://www.w3.org/1999/xlink" xmlns:svgjs="http://svgjs.dev/svgjs" width="1000" height="1000" viewBox="0 0 1000 1000"><rect width="1000" height="1000" fill="#ffffff"></rect><g transform="matrix(0.7,0,0,0.7,149.57575757575756,388.5231816437855)"><svg viewBox="0 0 396 126" data-background-color="#ffffff" preserveAspectRatio="xMidYMid meet" height="318" width="1000" xmlns="http://www.w3.org/2000/svg" xmlns:xlink="http://www.w3.org/1999/xlink"><g id="tight-bounds" transform="matrix(1,0,0,1,0.2400000000000091,0.10008586200819991)"><svg viewBox="0 0 395.52 125.79982827598363" height="125.79982827598363" width="395.52"><g><svg viewBox="0 0 612.855396631284 194.925929546484" height="125.79982827598363" width="395.52"><g transform="matrix(1,0,0,1,217.33539663128403,26.93983541489034)"><svg viewBox="0 0 395.5199999999999 141.04625871670333" height="141.04625871670333" width="395.5199999999999"><g id="textblocktransform"><svg viewBox="0 0 395.5199999999999 141.04625871670333" height="141.04625871670333" width="395.5199999999999" id="textblock"><g><svg viewBox="0 0 395.5199999999999 94.92479999999999" height="94.92479999999999" width="395.5199999999999"><g transform="matrix(1,0,0,1,0,0)"><svg width="395.5199999999999" viewBox="2.27 -40.43 168.45 40.43" height="94.92479999999999" data-palette-color="#093d65"><path d="M29.13-14.09L29.13-14.09Q29.13-15.04 28.55-15.36 27.98-15.67 26.88-15.67L26.88-15.67 15.55-15.67 15.55-17.43 26.88-17.43Q30.88-17.43 30.88-14.09L30.88-14.09Q30.88-12.21 29.79-11.38 28.69-10.55 26.88-10.55L26.88-10.55 15.55-10.55 15.55-12.3 26.88-12.3Q29.13-12.3 29.13-14.09ZM14.58-28.13L14.58 0 12.82 0 12.82-29.88 26.88-29.88Q28.54-29.88 29.71-28.87 30.88-27.86 30.88-26.34L30.88-26.34Q30.88-24.34 29.79-23.45 28.69-22.56 26.88-22.56L26.88-22.56 15.55-22.56 15.55-24.32 26.88-24.32Q29.13-24.32 29.13-26.34L29.13-26.34Q29.13-27.17 28.49-27.65 27.86-28.13 26.88-28.13L26.88-28.13 14.58-28.13ZM15.55-19.04L15.55-20.8 26.88-20.8Q29.3-20.8 30.97-22.25 32.64-23.71 32.64-26.34L32.64-26.34Q32.64-28.47 30.9-30.05 29.15-31.64 26.88-31.64L26.88-31.64 11.06-31.64 11.06 0 9.3 0 9.3-33.4 26.88-33.4Q29.88-33.4 32.14-31.29 34.4-29.17 34.4-26.34L34.4-26.34Q34.4-24.12 33.36-22.46 32.32-20.8 30.57-19.9L30.57-19.9Q34.4-18.53 34.4-14.33L34.4-14.33Q34.4-11.01 32.2-9.02 30-7.03 26.88-7.03L26.88-7.03 15.55-7.03 15.55-8.79 26.88-8.79Q29.3-8.79 30.97-10.24 32.64-11.69 32.64-14.33L32.64-14.33Q32.64-16.11 31.37-17.48 30.1-18.85 27.64-19.07L27.64-19.07Q27.39-19.04 26.88-19.04L26.88-19.04 15.55-19.04ZM37.92-26.34L37.92-26.34Q37.92-22.92 35.5-20.17L35.5-20.17Q37.92-17.48 37.92-14.33L37.92-14.33Q37.92-11.28 36.39-8.78 34.86-6.27 32.34-4.9 29.81-3.52 26.88-3.52L26.88-3.52 15.55-3.52 15.55-5.27 26.88-5.27Q30.69-5.27 33.42-7.82 36.16-10.38 36.16-14.33L36.16-14.33Q36.16-15.75 35.44-17.47 34.72-19.19 33.45-20.09L33.45-20.09Q36.16-22.63 36.16-26.34L36.16-26.34Q36.16-29.91 33.37-32.53 30.59-35.16 26.88-35.16L26.88-35.16 7.54-35.16 7.54 0 5.79 0 5.79-36.91 26.88-36.91Q29.79-36.91 32.34-35.49 34.89-34.06 36.4-31.6 37.92-29.15 37.92-26.34ZM37.5-20.07L37.5-20.07Q39.67-22.97 39.67-26.34L39.67-26.34Q39.67-29.64 37.93-32.48 36.18-35.33 33.23-37 30.27-38.67 26.88-38.67L26.88-38.67 4.03-38.67 4.03 0 2.27 0 2.27-40.43 26.88-40.43Q30.74-40.43 34.09-38.53 37.45-36.62 39.44-33.36 41.43-30.1 41.43-26.34L41.43-26.34Q41.43-22.75 39.4-20.04L39.4-20.04Q41.43-17.24 41.43-14.33L41.43-14.33Q41.43-11.06 40.26-8.34 39.09-5.62 37.1-3.81 35.11-2 32.47-1 29.83 0 26.88 0L26.88 0 15.55 0 15.55-1.76 26.88-1.76Q29.44-1.76 31.79-2.72 34.13-3.69 35.86-5.35 37.6-7.01 38.64-9.35 39.67-11.69 39.67-14.33L39.67-14.33Q39.67-15.5 39.12-17.15 38.57-18.8 37.5-20.07ZM70.26-11.87L62.84-11.87 63.55-13.62 69.55-13.62 70.26-11.87ZM71.68-8.35L61.47-8.35 62.16-10.11 70.92-10.11 71.68-8.35ZM73.04-4.83L60.1-4.83 60.79-6.59 72.31-6.59 73.04-4.83ZM60.86-38.06L45.82 0 43.92 0 59.91-40.43 61.81-40.43 77.78 0 75.9 0 60.86-38.06ZM47.7 0L61.08-33.89 62.08-31.64 49.58 0 47.7 0ZM51.49 0L63.03-29.25 63.96-26.83 53.39 0 51.49 0ZM55.27 0L64.89-24.41 65.82-21.95 57.15 0 55.27 0ZM73.14-40.43L89.13 0 87.23 0 71.26-40.43 73.14-40.43ZM67.48-40.43L69.36-40.43 85.35 0 83.47 0 67.48-40.43ZM63.69-40.43L65.57-40.43 81.56 0 79.66 0 63.69-40.43ZM105.49-18.36L105.49-20.12 116.08-20.12Q118.5-20.12 120.17-21.68 121.85-23.24 121.85-26.12L121.85-26.12Q121.85-28.25 120.09-29.94 118.33-31.64 116.08-31.64L116.08-31.64 101-31.64 101 0 99.24 0 99.24-33.4 116.08-33.4Q119.06-33.4 121.33-31.19 123.6-28.98 123.6-26.12L123.6-26.12Q123.6-22.61 121.41-20.48 119.21-18.36 116.08-18.36L116.08-18.36 105.49-18.36ZM105.49-14.84L105.49-16.6 116.08-16.6Q119.89-16.6 122.63-19.27 125.36-21.95 125.36-26.12L125.36-26.12Q125.36-29.71 122.57-32.43 119.77-35.16 116.08-35.16L116.08-35.16 97.48-35.16 97.48 0 95.72 0 95.72-36.91 116.08-36.91Q118.99-36.91 121.54-35.42 124.09-33.94 125.61-31.43 127.12-28.93 127.12-26.12L127.12-26.12Q127.12-21.31 123.86-18.08 120.6-14.84 116.08-14.84L116.08-14.84 105.49-14.84ZM105.49-11.33L105.49-13.09 116.08-13.09Q119.5-13.09 122.43-14.77 125.36-16.46 127.12-19.47 128.88-22.49 128.88-26.12L128.88-26.12Q128.88-29.42 127.13-32.31 125.39-35.21 122.43-36.94 119.48-38.67 116.08-38.67L116.08-38.67 93.96-38.67 93.96 0 92.21 0 92.21-40.43 116.08-40.43Q119.92-40.43 123.29-38.46 126.66-36.5 128.64-33.19 130.63-29.88 130.63-26.12L130.63-26.12Q130.63-21.78 128.77-18.48 126.9-15.19 123.7-13.33L123.7-13.33 128.24 0 126.39 0 122.04-12.5Q121.06-12.11 120.55-11.96L120.55-11.96 124.63 0 122.77 0 118.79-11.55Q118.57-11.5 117.23-11.38L117.23-11.38 121.02 0 119.16 0 115.42-11.33 113.84-11.33 117.4 0 115.55 0 111.96-11.33 105.49-11.33ZM104.51-28.13L104.51 0 102.75 0 102.75-29.88 116.08-29.88Q117.72-29.88 118.9-28.77 120.09-27.66 120.09-26.12L120.09-26.12Q120.09-21.88 116.08-21.88L116.08-21.88 105.49-21.88 105.49-23.63 116.08-23.63Q117.13-23.63 117.73-24.18 118.33-24.73 118.33-26.12L118.33-26.12Q118.33-26.98 117.68-27.55 117.04-28.13 116.08-28.13L116.08-28.13 104.51-28.13ZM138.25-40.43L147.92-20.34 147.04-18.41 136.49-40.43 138.25-40.43ZM141.76-40.43L149.68-24.19 148.77-22.27 140.01-40.43 141.76-40.43ZM145.28-40.43L151.43-28.03 150.55-26.1 143.52-40.43 145.28-40.43ZM149.21 0L149.21-13.62 161.93-40.43 163.69-40.43 150.97-13.62 150.97 0 149.21 0ZM152.73 0L152.73-13.62 165.45-40.43 167.2-40.43 154.48-13.62 154.48 0 152.73 0ZM156.24 0L156.24-13.62 168.96-40.43 170.72-40.43 158-13.62 158 0 156.24 0ZM134.73-40.43L146.57-15.48 158.42-40.43 160.17-40.43 147.45-13.62 147.45 0 145.7 0 145.7-13.62 132.98-40.43 134.73-40.43Z" opacity="1" transform="matrix(1,0,0,1,0,0)" fill="#093d65" class="wordmark-text-0" data-fill-palette-color="primary" id="text-0"></path></svg></g></svg></g><g transform="matrix(1,0,0,1,0,117.33426708479999)"><svg viewBox="0 0 300.5951999999999 23.711991631903363" height="23.711991631903363" width="300.5951999999999"><g transform="matrix(1,0,0,1,0,0)"><svg width="300.5951999999999" viewBox="4.65 -34.7 440.01647057761767 35.400000000000006" height="23.711991631903363" data-palette-color="#f98e54"><g class="slogan-text-1" data-fill-palette-color="secondary" id="text-1"><path d="M10.55 0L4.65 0 4.65-32.45 16.65-32.45Q22.48-32.45 25.59-29.73 28.7-27 28.7-22.5L28.7-22.5Q28.7-18.07 25.59-15.36 22.48-12.65 16.65-12.65L16.65-12.65 10.55-12.65 10.55 0ZM29.9 0L22.2 0 13.6-15.2 19.9-15.2 29.9 0ZM10.55-27.35L10.55-16.6 16.05-16.6Q19.3-16.6 20.98-18.09 22.65-19.58 22.65-21.95L22.65-21.95Q22.65-24.38 21.13-25.86 19.6-27.35 16.65-27.35L16.65-27.35 10.55-27.35ZM45.87 0.7L45.87 0.7Q42.77 0.7 40.2-0.9 37.62-2.5 36.07-5.39 34.52-8.28 34.52-12.15L34.52-12.15Q34.52-16.15 36.06-19.03 37.6-21.9 40.17-23.43 42.75-24.95 45.87-24.95L45.87-24.95Q48.77-24.95 50.89-23.79 53-22.63 54.29-20.64 55.57-18.65 56.02-16.15 56.47-13.65 56.07-11L56.07-11 39.22-11 39.22-14.2 51.9-14.2 50.75-13.45Q50.82-14.63 50.64-15.83 50.45-17.03 49.92-18.03 49.4-19.03 48.44-19.64 47.47-20.25 45.97-20.25L45.97-20.25Q44.17-20.25 42.92-19.35 41.67-18.45 41.02-16.9 40.37-15.35 40.37-13.4L40.37-13.4 40.37-11.05Q40.37-9 40.99-7.43 41.6-5.85 42.81-4.95 44.02-4.05 45.87-4.05L45.87-4.05Q47.6-4.05 48.77-4.85 49.95-5.65 50.27-7.25L50.27-7.25 56.22-7.25Q55.85-4.9 54.46-3.11 53.07-1.33 50.87-0.31 48.67 0.7 45.87 0.7ZM83.92 0L78.77 0 78.02-5.9 78.02-15.65Q78.02-18.2 76.98-19.43 75.95-20.65 73.47-20.65L73.47-20.65Q72.05-20.65 71-20.23 69.95-19.8 69.38-19.01 68.82-18.23 68.82-17.1L68.82-17.1 62.37-17.1Q62.37-19.85 63.7-21.59 65.02-23.33 67.51-24.14 70-24.95 73.47-24.95L73.47-24.95Q76.62-24.95 78.97-23.94 81.32-22.93 82.62-20.83 83.92-18.73 83.92-15.45L83.92-15.45 83.92 0ZM70.82 0.7L70.82 0.7Q67.7 0.7 65.61-0.39 63.52-1.48 62.47-3.25 61.42-5.03 61.42-7.1L61.42-7.1Q61.42-9.4 62.63-10.96 63.85-12.53 66.07-13.31 68.3-14.1 71.32-14.1L71.32-14.1Q73.3-14.1 75.06-13.8 76.82-13.5 78.57-13L78.57-13 78.57-9.55Q77.2-10 75.57-10.25 73.95-10.5 72.52-10.5L72.52-10.5Q70.42-10.5 69.07-9.73 67.72-8.95 67.72-7.1L67.72-7.1Q67.72-5.75 68.82-4.78 69.92-3.8 72.32-3.8L72.32-3.8Q74.15-3.8 75.42-4.6 76.7-5.4 77.36-6.6 78.02-7.8 78.02-9L78.02-9 79.42-9Q79.42-6.38 78.45-4.16 77.47-1.95 75.56-0.63 73.65 0.7 70.82 0.7ZM101.77 0.7L101.77 0.7Q98.72 0.7 96.11-0.89 93.49-2.48 91.88-5.36 90.27-8.25 90.27-12.15L90.27-12.15Q90.27-16.28 91.88-19.14 93.49-22 96.11-23.48 98.72-24.95 101.77-24.95L101.77-24.95Q104.14-24.95 105.96-24.19 107.77-23.43 109.04-22.14 110.32-20.85 111.04-19.28 111.77-17.7 111.97-16.1L111.97-16.1 106.02-15.95Q105.62-17.55 104.53-18.6 103.44-19.65 101.72-19.65L101.72-19.65Q100.29-19.65 99.04-18.86 97.79-18.07 97.01-16.43 96.22-14.78 96.22-12.15L96.22-12.15Q96.22-9.65 96.96-7.99 97.69-6.33 98.94-5.49 100.19-4.65 101.72-4.65L101.72-4.65Q103.97-4.65 104.99-5.74 106.02-6.83 106.02-8.65L106.02-8.65 111.97-8.65Q111.97-6.08 110.79-3.95 109.62-1.83 107.34-0.56 105.07 0.7 101.77 0.7ZM141.59 0L135.69 0 135.69-14.2Q135.69-16.9 134.39-18.28 133.09-19.65 130.99-19.65L130.99-19.65Q129.22-19.65 127.85-18.68 126.49-17.7 125.72-15.74 124.94-13.78 124.94-10.85L124.94-10.85 122.99-10.85Q122.99-15.58 124.17-18.71 125.34-21.85 127.49-23.4 129.64-24.95 132.54-24.95L132.54-24.95Q135.54-24.95 137.55-23.61 139.57-22.28 140.58-19.85 141.59-17.43 141.59-14.2L141.59-14.2 141.59 0ZM124.94 0L119.04 0 119.04-34.3 124.94-34.3 124.94 0Z" fill="#093d65" data-fill-palette-color="primary"></path><path d="M167.09 0.7L167.09 0.7Q164.94 0.7 163.15-0.1 161.36-0.9 160.3-2.55 159.24-4.2 159.24-6.75L159.24-6.75 159.24-30.7 165.14-30.7 165.14-6.95Q165.14-3.95 167.99-3.95L167.99-3.95Q168.86-3.95 169.74-4.15 170.61-4.35 171.74-4.75L171.74-4.75 172.59-0.6Q171.19-0.05 169.86 0.33 168.54 0.7 167.09 0.7ZM171.74-20.35L155.84-20.35 155.84-24.25 171.74-24.25 171.74-20.35ZM188.16 0.7L188.16 0.7Q184.84 0.7 182.15-0.73 179.46-2.15 177.89-4.99 176.31-7.83 176.31-12.1L176.31-12.1Q176.31-16.45 177.89-19.3 179.46-22.15 182.15-23.55 184.84-24.95 188.16-24.95L188.16-24.95Q191.44-24.95 194.1-23.55 196.76-22.15 198.34-19.3 199.91-16.45 199.91-12.1L199.91-12.1Q199.91-7.83 198.34-4.99 196.76-2.15 194.1-0.73 191.44 0.7 188.16 0.7ZM187.96-4.45L187.96-4.45Q189.71-4.45 191.07-5.31 192.44-6.18 193.22-7.88 194.01-9.58 194.01-12.1L194.01-12.1Q194.01-15.95 192.5-17.9 190.99-19.85 188.36-19.85L188.36-19.85Q186.59-19.85 185.21-18.99 183.84-18.13 183.05-16.4 182.26-14.68 182.26-12.1L182.26-12.1Q182.26-8.3 183.8-6.38 185.34-4.45 187.96-4.45Z" fill="#f98e54" data-fill-palette-color="secondary"></path><path d="M225.41 0.7L225.41 0.7Q223.26 0.7 221.47-0.1 219.68-0.9 218.62-2.55 217.56-4.2 217.56-6.75L217.56-6.75 217.56-30.7 223.46-30.7 223.46-6.95Q223.46-3.95 226.31-3.95L226.31-3.95Q227.18-3.95 228.06-4.15 228.93-4.35 230.06-4.75L230.06-4.75 230.91-0.6Q229.51-0.05 228.18 0.33 226.86 0.7 225.41 0.7ZM230.06-20.35L214.16-20.35 214.16-24.25 230.06-24.25 230.06-20.35ZM259.48 0L253.58 0 253.58-14.2Q253.58-16.9 252.28-18.28 250.98-19.65 248.88-19.65L248.88-19.65Q247.11-19.65 245.74-18.68 244.38-17.7 243.61-15.74 242.83-13.78 242.83-10.85L242.83-10.85 240.88-10.85Q240.88-15.58 242.06-18.71 243.23-21.85 245.38-23.4 247.53-24.95 250.43-24.95L250.43-24.95Q253.43-24.95 255.44-23.61 257.46-22.28 258.47-19.85 259.48-17.43 259.48-14.2L259.48-14.2 259.48 0ZM242.83 0L236.93 0 236.93-34.3 242.83-34.3 242.83 0ZM277.13 0.7L277.13 0.7Q274.03 0.7 271.45-0.9 268.88-2.5 267.33-5.39 265.78-8.28 265.78-12.15L265.78-12.15Q265.78-16.15 267.32-19.03 268.85-21.9 271.43-23.43 274-24.95 277.13-24.95L277.13-24.95Q280.03-24.95 282.14-23.79 284.25-22.63 285.54-20.64 286.83-18.65 287.28-16.15 287.73-13.65 287.33-11L287.33-11 270.48-11 270.48-14.2 283.15-14.2 282-13.45Q282.08-14.63 281.89-15.83 281.7-17.03 281.18-18.03 280.65-19.03 279.69-19.64 278.73-20.25 277.23-20.25L277.23-20.25Q275.43-20.25 274.18-19.35 272.93-18.45 272.28-16.9 271.63-15.35 271.63-13.4L271.63-13.4 271.63-11.05Q271.63-9 272.24-7.43 272.85-5.85 274.07-4.95 275.28-4.05 277.13-4.05L277.13-4.05Q278.85-4.05 280.03-4.85 281.2-5.65 281.53-7.25L281.53-7.25 287.48-7.25Q287.1-4.9 285.72-3.11 284.33-1.33 282.13-0.31 279.93 0.7 277.13 0.7Z" fill="#093d65" data-fill-palette-color="primary"></path><path d="M312.168 0L306.218 0 306.218-27.2Q306.218-29.83 307.238-31.48 308.268-33.13 309.958-33.91 311.638-34.7 313.618-34.7L313.618-34.7Q314.838-34.7 316.138-34.52 317.438-34.35 318.668-34.1L318.668-34.1 317.518-29.55Q316.888-29.78 316.218-29.91 315.538-30.05 314.918-30.05L314.918-30.05Q314.218-30.05 313.588-29.79 312.968-29.53 312.568-28.88 312.168-28.23 312.168-27.1L312.168-27.1 312.168 0ZM316.618-20.35L302.618-20.35 302.618-24.25 316.618-24.25 316.618-20.35ZM339.338 0L339.338-24.35 345.238-24.35 345.238 0 339.338 0ZM322.688-8.85L322.688-24.35 328.588-24.35 328.588-9.45Q328.588-7.08 329.768-5.89 330.938-4.7 332.988-4.7L332.988-4.7Q334.738-4.7 336.178-5.61 337.608-6.53 338.478-8.31 339.338-10.1 339.338-12.75L339.338-12.75 340.938-12.75Q340.938-8.3 339.788-5.38 338.638-2.45 336.608-1 334.588 0.45 331.938 0.45L331.938 0.45Q329.338 0.45 327.238-0.48 325.138-1.4 323.908-3.45 322.688-5.5 322.688-8.85L322.688-8.85ZM362.738 0.7L362.738 0.7Q360.588 0.7 358.798-0.1 357.008-0.9 355.948-2.55 354.888-4.2 354.888-6.75L354.888-6.75 354.888-30.7 360.788-30.7 360.788-6.95Q360.788-3.95 363.638-3.95L363.638-3.95Q364.508-3.95 365.388-4.15 366.258-4.35 367.388-4.75L367.388-4.75 368.238-0.6Q366.838-0.05 365.508 0.33 364.188 0.7 362.738 0.7ZM367.388-20.35L351.488-20.35 351.488-24.25 367.388-24.25 367.388-20.35ZM390.408 0L390.408-24.35 396.308-24.35 396.308 0 390.408 0ZM373.758-8.85L373.758-24.35 379.658-24.35 379.658-9.45Q379.658-7.08 380.828-5.89 382.008-4.7 384.058-4.7L384.058-4.7Q385.808-4.7 387.248-5.61 388.688-6.53 389.548-8.31 390.408-10.1 390.408-12.75L390.408-12.75 392.008-12.75Q392.008-8.3 390.858-5.38 389.708-2.45 387.688-1 385.658 0.45 383.008 0.45L383.008 0.45Q380.408 0.45 378.308-0.48 376.208-1.4 374.988-3.45 373.758-5.5 373.758-8.85L373.758-8.85ZM411.508 0L405.608 0 405.608-24.35 411.508-24.35 411.508 0ZM411.508-10.65L410.058-10.65Q410.058-15.43 411.128-18.55 412.208-21.68 414.018-23.19 415.828-24.7 418.058-24.7L418.058-24.7Q418.658-24.7 419.198-24.63 419.728-24.55 420.258-24.4L420.258-24.4 420.158-18.5Q419.508-18.65 418.758-18.75 418.008-18.85 417.408-18.85L417.408-18.85Q415.458-18.85 414.148-17.91 412.828-16.98 412.168-15.15 411.508-13.33 411.508-10.65L411.508-10.65ZM434.278 0.7L434.278 0.7Q431.178 0.7 428.608-0.9 426.028-2.5 424.478-5.39 422.928-8.28 422.928-12.15L422.928-12.15Q422.928-16.15 424.468-19.03 426.008-21.9 428.578-23.43 431.148-24.95 434.278-24.95L434.278-24.95Q437.178-24.95 439.288-23.79 441.398-22.63 442.688-20.64 443.978-18.65 444.428-16.15 444.878-13.65 444.478-11L444.478-11 427.628-11 427.628-14.2 440.298-14.2 439.148-13.45Q439.228-14.63 439.038-15.83 438.858-17.03 438.328-18.03 437.798-19.03 436.838-19.64 435.878-20.25 434.378-20.25L434.378-20.25Q432.578-20.25 431.328-19.35 430.078-18.45 429.428-16.9 428.778-15.35 428.778-13.4L428.778-13.4 428.778-11.05Q428.778-9 429.388-7.43 430.008-5.85 431.218-4.95 432.428-4.05 434.278-4.05L434.278-4.05Q436.008-4.05 437.178-4.85 438.358-5.65 438.678-7.25L438.678-7.25 444.628-7.25Q444.258-4.9 442.868-3.11 441.478-1.33 439.278-0.31 437.078 0.7 434.278 0.7Z" fill="#f98e54" data-fill-palette-color="secondary"></path></g></svg></g></svg></g></svg></g></svg></g><g><svg viewBox="0 0 194.925929546484 194.925929546484" height="194.925929546484" width="194.925929546484"><g data-palette-color="#f98e54"><rect width="53.27975407603896" height="194.925929546484" fill="#f98e54" stroke="transparent" data-fill-palette-color="accent" x="0" fill-opacity="0.5"></rect><rect width="53.27975407603896" height="194.925929546484" fill="#f98e54" stroke="transparent" data-fill-palette-color="accent" x="64.975309848828" fill-opacity="0.75"></rect><rect width="53.27975407603896" height="194.925929546484" fill="#f98e54" stroke="transparent" data-fill-palette-color="accent" x="129.950619697656" fill-opacity="1"></rect></g></svg></g></svg></g><defs></defs></svg><rect width="395.52" height="125.79982827598363" fill="none" stroke="none" visibility="hidden"></rect></g></svg></g></svg>